<svg xmlns="http://www.w3.org/2000/svg" viewBox="0 0 1424.23 837.28"><defs><style>.cls-1{fill:#fff;}</style></defs><g id="Layer_2" data-name="Layer 2"><g id="Layer_1-2" data-name="Layer 1"><path class="cls-1" d="M567.57,135.52V119c3.87-11.79,13.9-29.56,23.58-42.41,10.91-13.73,13.73-23.94,13.73-38.72,0-13.9-1.41-18.48-7.57-18.48-6.86,0-7.57,6.69-7.57,20.06a58.3,58.3,0,0,0,1.41,13.2L569.5,49.28a59.65,59.65,0,0,1-1.4-12c0-22.7,8.27-37.31,31-37.31C620.9,0,630.4,10,630.4,35.9c0,20.77-7.39,32.39-19.18,48.05-7.75,9.5-14.79,20.77-18,31.5h36.08v20.07Z"/><path class="cls-1" d="M705,100c0,25.34-12.67,37.31-32.73,37.31s-32.74-12-32.74-37.31V37.13C639.55,11.79,652.22,0,672.29,0S705,11.79,705,37.13ZM672.29,18.83c-5.11,0-7.92,3.35-7.92,10v79.73c0,6.69,2.81,9.85,7.92,9.85,5.28,0,7.92-3.16,7.92-9.85V28.86Q680.21,18.84,672.29,18.83Z"/><path class="cls-1" d="M714.88,135.52V119c3.87-11.79,13.9-29.56,23.58-42.41,10.91-13.73,13.73-23.94,13.73-38.72,0-13.9-1.41-18.48-7.57-18.48-6.86,0-7.57,6.69-7.57,20.06a58.3,58.3,0,0,0,1.41,13.2l-21.65-3.34a59.7,59.7,0,0,1-1.41-12c0-22.7,8.28-37.31,31-37.31,21.82,0,31.33,10,31.33,35.9,0,20.77-7.4,32.39-19.19,48.05-7.74,9.5-14.78,20.77-17.95,31.5h36.08v20.07Z"/><path class="cls-1" d="M799.35,34.67h-.53c-4.22,3.7-10.38,5.63-16.36,6V23.41c5.63-1.06,10.21-2.64,13.9-5.63,4.4-3.52,7.39-8.28,9.15-16h18.13V135.52H799.35Z"/><path class="cls-1" d="M970.07,135.52H943.32l-3.52-28.69H922.9l-3.52,28.69H895.09L917.62,1.76h30.1ZM925,88.7h12.68l-3.35-27.81c-1.05-7.92-1.93-19.36-2.46-24.81h-1.06c-.53,5.45-1.41,16.89-2.46,24.81Z"/><path class="cls-1" d="M977.46,135.52V1.76h36.78c19,0,30.8,6,30.8,28.86v15c0,12.15-7.56,19.36-19.71,22v.71c11.44,3.16,16.72,10.91,18.66,24.46.53,3.87.7,8.27,1,13.37.53,15,1.76,24.82,4.4,28.52v.88h-27.63c-1.76-1.76-3.17-8.63-3.17-14.79v-32c0-10.91-3.87-13-10.2-13h-4.23v59.84Zm41.18-86.24V26.58c0-5.28-1.76-7-7.56-7h-6.87V58.25h6.52C1015.48,58.25,1018.64,56.67,1018.64,49.28Z"/><path class="cls-1" d="M1098.9,135.52h-26.75V22h-20.94V1.76h68.63V22H1098.9Z"/><path class="cls-1" d="M1144.31,82.54h-18.83V66.88h18.83v-19h15.84v19H1179V82.54h-18.83v18.83h-15.84Z"/><path class="cls-1" d="M347.82,216.73H324.59v38.72h29.56v20.07H297.84V141.76h55.43V162H324.59v34.49h23.23Z"/><path class="cls-1" d="M407.31,275.52l-16.9-70.93c-2.46-10.74-4.57-20.59-5.81-27.28h-1.05c.17,6.86.53,17.6.53,28v70.23H363.84V141.76h29.21l13,59.49c2.12,10.38,4.4,22.52,5.64,29.74h1.05c0-7.39-.53-18.66-.53-30.8V141.76h20.42V275.52Z"/><path class="cls-1" d="M439.69,141.76h26.93l7.74,67.05c1.06,9.68,1.94,18.48,2.64,25.7h1.06c.53-7.22,1.58-16,2.64-25.7l7.39-67.05H512L490.2,275.52H461.52Z"/><path class="cls-1" d="M545.82,275.52H519.07V141.76h26.75Z"/><path class="cls-1" d="M558.31,275.52V141.76H595.1c19,0,30.8,6,30.8,28.86v15c0,12.15-7.57,19.36-19.72,22v.71c11.44,3.16,16.72,10.91,18.66,24.46.53,3.87.7,8.27,1.06,13.37.52,15,1.76,24.82,4.4,28.52v.88H602.66c-1.76-1.76-3.16-8.63-3.16-14.79v-32c0-10.91-3.88-13-10.21-13h-4.23v59.84Zm41.19-86.24v-22.7c0-5.28-1.76-7-7.57-7h-6.87v38.71h6.52C596.33,198.25,599.5,196.67,599.5,189.28Z"/><path class="cls-1" d="M708.26,244.54c0,23.58-16.36,32.74-35.19,32.74s-35.2-9.16-35.2-32.74v-72c0-23.41,16.36-32.56,35.2-32.56s35.19,9.15,35.19,32.56Zm-35.19-85c-5.11,0-8.45,2.28-8.45,9v80.26c0,6.68,3.34,9,8.45,9s8.44-2.29,8.44-9V168.51C681.51,161.82,678.17,159.54,673.07,159.54Z"/><path class="cls-1" d="M764.05,275.52l-16.89-70.93c-2.46-10.74-4.58-20.59-5.81-27.28H740.3c.17,6.86.52,17.6.52,28v70.23H720.58V141.76H749.8l13,59.49c2.11,10.38,4.4,22.52,5.63,29.74h1.06c0-7.39-.53-18.66-.53-30.8V141.76H789.4V275.52Z"/><path class="cls-1" d="M872.29,275.52V197.9c0-8.62.36-20.59.53-26.57h-1.23c-.7,5.63-1.41,13.55-2.46,24.11L860,275.52H835.33l-9.15-80.08c-1-10.56-1.76-18.48-2.46-24.11h-1.23c.35,6,.52,17.95.52,26.57v77.62H802.42V141.76h37.31l6.87,59.49c1.23,10.91,2.11,22.17,2.81,29.92h.88c.88-7.75,1.59-19,2.82-29.92l7-59.49h36.43V275.52Z"/><path class="cls-1" d="M959.59,216.73H936.36v38.72h29.57v20.07H909.61V141.76h55.44V162H936.36v34.49h23.23Z"/><path class="cls-1" d="M1019.08,275.52l-16.9-70.93c-2.46-10.74-4.57-20.59-5.81-27.28h-1c.17,6.86.53,17.6.53,28v70.23H975.61V141.76h29.21l13,59.49c2.11,10.38,4.4,22.52,5.63,29.74h1c0-7.39-.52-18.66-.52-30.8V141.76h20.41V275.52Z"/><path class="cls-1" d="M1099.51,275.52h-26.75V162h-21V141.76h68.64V162h-20.94Z"/><path class="cls-1" d="M23.58,383.66c0,10.38,2.64,14.61,9.16,14.61s8.27-3.7,8.27-12.5c0-7.74-2.82-15.13-7.22-19.88-6.16-6.34-17.25-16-22.88-22.18-6-7-10.21-18.13-10.21-31.33C.7,290.56,12.85,280,33.09,280s30.8,9.68,30.8,29.22a67.14,67.14,0,0,1-1.06,12.31l-22.18,4.05A145.67,145.67,0,0,0,41.71,311c0-8.63-3-11.8-7.92-11.8-5.81,0-7.74,3.17-7.74,11.27q0,10.82,6.86,17.95c4.58,4.22,16.54,15.31,23.94,24.11,4.75,5.63,9.68,18.48,9.68,29.92,0,25.87-12.15,34.85-33.27,34.85C11.62,417.28,0,406.19,0,383.66a119.69,119.69,0,0,1,.7-14.43l23.94-4.75C24.11,371.17,23.58,377,23.58,383.66Z"/><path class="cls-1" d="M126,356.73H102.78v38.72h29.57v20.07H76V281.76h55.44V302H102.78v34.49H126Z"/><path class="cls-1" d="M210.85,415.52H184.09l-3.52-28.69H163.68l-3.52,28.69H135.87L158.4,281.76h30.09ZM165.79,368.7h12.67l-3.34-27.81c-1.06-7.92-1.94-19.36-2.47-24.81H171.6c-.53,5.45-1.41,16.89-2.47,24.81Z"/><path class="cls-1" d="M236.3,383.66c0,10.38,2.64,14.61,9.16,14.61s8.27-3.7,8.27-12.5c0-7.74-2.82-15.13-7.22-19.88-6.16-6.34-17.25-16-22.88-22.18-6-7-10.21-18.13-10.21-31.33,0-21.82,12.15-32.38,32.39-32.38s30.8,9.68,30.8,29.22a67.14,67.14,0,0,1-1.06,12.31l-22.17,4.05c.52-5.28,1.05-9.85,1.05-14.6,0-8.63-3-11.8-7.92-11.8-5.81,0-7.74,3.17-7.74,11.27q0,10.82,6.86,17.95c4.58,4.22,16.54,15.31,23.94,24.11,4.75,5.63,9.68,18.48,9.68,29.92,0,25.87-12.15,34.85-33.27,34.85-21.64,0-33.26-11.09-33.26-33.62a119.69,119.69,0,0,1,.7-14.43l23.94-4.75C236.83,371.17,236.3,377,236.3,383.66Z"/><path class="cls-1" d="M355.44,384.54c0,23.58-16.36,32.74-35.2,32.74s-35.19-9.16-35.19-32.74v-72c0-23.41,16.36-32.56,35.19-32.56s35.2,9.15,35.2,32.56Zm-35.2-85c-5.1,0-8.44,2.28-8.44,9v80.26c0,6.68,3.34,9,8.44,9s8.45-2.29,8.45-9V308.51C328.69,301.82,325.35,299.54,320.24,299.54Z"/><path class="cls-1" d="M407.23,415.52l-16.89-70.93c-2.47-10.74-4.58-20.59-5.81-27.28h-1.06c.18,6.86.53,17.6.53,28v70.23H363.76V281.76H393l13,59.49c2.11,10.38,4.4,22.52,5.63,29.74h1.06c0-7.39-.53-18.66-.53-30.8V281.76h20.42V415.52Z"/><path class="cls-1" d="M605.36,395.28h29.75v20.24H579.32V281.76h26Z"/><path class="cls-1" d="M712,415.52H685.27l-3.52-28.69h-16.9l-3.52,28.69H637l22.53-133.76h30.1ZM667,368.7h12.67l-3.34-27.81c-1.06-7.92-1.94-19.36-2.46-24.81h-1.06c-.53,5.45-1.41,16.89-2.46,24.81Z"/><path class="cls-1" d="M763.41,415.52l-16.9-70.93c-2.46-10.74-4.57-20.59-5.8-27.28h-1.06c.18,6.86.53,17.6.53,28v70.23H719.94V281.76h29.21l13,59.49c2.11,10.38,4.4,22.52,5.63,29.74h1.05c0-7.39-.52-18.66-.52-30.8V281.76h20.41V415.52Z"/><path class="cls-1" d="M869,314.67v68.46c0,20.95-9.33,32.39-31.33,32.39h-35.9V281.76h35.9C859.68,281.76,869,293.55,869,314.67Zm-40.48-14.43v96.62h4.93c5.1,0,9-1.94,9-8.8V309.57c0-6.87-3.87-9.33-9-9.33Z"/><path class="cls-1" d="M972.14,415.52H945.39l-3.52-28.69H925l-3.52,28.69H897.17L919.7,281.76h30.09Zm-45-46.82h12.67l-3.34-27.81c-1.06-7.92-1.94-19.36-2.47-24.81H932.9c-.53,5.45-1.41,16.89-2.47,24.81Z"/><path class="cls-1" d="M979.54,415.52V281.76h36.78c19,0,30.8,6,30.8,28.86v15c0,12.15-7.57,19.36-19.71,22v.71c11.44,3.16,16.72,10.91,18.65,24.46.53,3.87.71,8.27,1.06,13.37.53,15,1.76,24.82,4.4,28.52v.88h-27.63c-1.76-1.76-3.17-8.63-3.17-14.79v-32c0-10.91-3.87-13-10.21-13h-4.22v59.84Zm41.18-86.24v-22.7c0-5.28-1.76-7-7.57-7h-6.86v38.71h6.51C1017.55,338.25,1020.72,336.67,1020.72,329.28Z"/><path class="cls-1" d="M1101,415.52h-26.75V302h-20.94V281.76h68.64V302h-21Z"/><path class="cls-1" d="M1147.79,320.3v24.11H1126V320.3Zm0,71.1v24.12H1126V391.4Z"/><path class="cls-1" d="M879.53,501.13H866.69v54.39H839.93V421.76h39.6c17.07,0,28.34,7.57,28.34,29.39v20.42C907.87,493.57,896.43,501.13,879.53,501.13ZM881.29,449c0-6.34-2.11-8.1-7.92-8.1h-6.68V482.3h6.68c5.81,0,7.92-1.76,7.92-8.27Z"/><path class="cls-1" d="M981.61,555.52H954.86l-3.52-28.69h-16.9l-3.52,28.69H906.64l22.52-133.76h30.1ZM936.56,508.7h12.67l-3.35-27.81c-1-7.91-1.93-19.36-2.46-24.81h-1.06c-.52,5.45-1.4,16.9-2.46,24.81Z"/><path class="cls-1" d="M1009.07,523.66c0,10.39,2.64,14.61,9.15,14.61s8.27-3.7,8.27-12.5c0-7.74-2.81-15.13-7.21-19.88-6.16-6.34-17.25-16-22.88-22.18-6-7-10.21-18.13-10.21-31.33,0-21.82,12.14-32.38,32.38-32.38s30.8,9.68,30.8,29.22a67.18,67.18,0,0,1-1,12.31l-22.18,4.05a145.67,145.67,0,0,0,1.06-14.6c0-8.63-3-11.8-7.92-11.8-5.81,0-7.75,3.17-7.75,11.27q0,10.82,6.87,17.95c4.57,4.22,16.54,15.31,23.93,24.11,4.75,5.63,9.68,18.48,9.68,29.92,0,25.87-12.14,34.85-33.26,34.85-21.65,0-33.26-11.09-33.26-33.62a117.77,117.77,0,0,1,.7-14.43l23.94-4.75C1009.6,511.17,1009.07,517,1009.07,523.66Z"/><path class="cls-1" d="M1101.82,555.52h-26.75V442h-21V421.76h68.64V442h-20.94Z"/><path class="cls-1" d="M655.34,641.13H642.49v54.39H615.74V561.76h39.6c17.07,0,28.34,7.57,28.34,29.39v20.42C683.68,633.57,672.24,641.13,655.34,641.13ZM657.1,589c0-6.34-2.11-8.1-7.92-8.1h-6.69V622.3h6.69c5.81,0,7.92-1.76,7.92-8.27Z"/><path class="cls-1" d="M692.48,695.52V561.76h36.78c19,0,30.8,6,30.8,28.86v15c0,12.15-7.57,19.36-19.71,22v.71c11.44,3.16,16.72,10.91,18.65,24.46.53,3.87.71,8.27,1.06,13.38.53,15,1.76,24.81,4.4,28.51v.88H736.83c-1.76-1.76-3.17-8.63-3.17-14.79v-32c0-10.91-3.87-13-10.21-13h-4.22v59.84Zm41.18-86.24v-22.7c0-5.28-1.76-7-7.57-7h-6.86v38.71h6.51C730.49,618.25,733.66,616.67,733.66,609.28Z"/><path class="cls-1" d="M824.48,636.73H801.24v38.72h29.57v20.07H774.49V561.76h55.44V582H801.24v34.49h23.24Z"/><path class="cls-1" d="M860.91,663.66c0,10.39,2.64,14.61,9.15,14.61s8.27-3.7,8.27-12.5c0-7.74-2.81-15.13-7.21-19.88-6.16-6.34-17.25-16-22.88-22.18-6-7-10.21-18.13-10.21-31.33,0-21.82,12.14-32.38,32.38-32.38s30.8,9.68,30.8,29.22a67.18,67.18,0,0,1-1.05,12.31L878,605.58A145.67,145.67,0,0,0,879,591c0-8.63-3-11.8-7.92-11.8-5.81,0-7.75,3.17-7.75,11.27q0,10.81,6.87,17.95c4.57,4.22,16.54,15.31,23.93,24.11,4.75,5.63,9.68,18.48,9.68,29.92,0,25.87-12.14,34.85-33.26,34.85-21.65,0-33.26-11.09-33.26-33.62a117.77,117.77,0,0,1,.7-14.43L862,644.48C861.44,651.17,860.91,657,860.91,663.66Z"/><path class="cls-1" d="M963.34,636.73H940.11v38.72h29.56v20.07H913.35V561.76h55.44V582H940.11v34.49h23.23Z"/><path class="cls-1" d="M1022.83,695.52l-16.9-70.93c-2.46-10.74-4.58-20.59-5.81-27.28h-1c.17,6.87.52,17.6.52,28v70.23H979.35V561.76h29.22l13,59.49c2.12,10.38,4.4,22.52,5.64,29.74h1c0-7.39-.53-18.66-.53-30.8V561.76h20.42V695.52Z"/><path class="cls-1" d="M1103.26,695.52h-26.75V582h-21V561.76h68.64V582h-20.94Z"/><path class="cls-1" d="M967.34,777.26H945v58.26H918.41V701.76h54.91V722H945v35.2h22.35Z"/><path class="cls-1" d="M1015.56,837.28c-21.3,0-35-10.56-35-33.27V701.76h26.75V807.53c0,6.69,3,9,8.09,9s8.45-2.29,8.45-9V701.76h26.58V804C1050.41,826.72,1036.68,837.28,1015.56,837.28Z"/><path class="cls-1" d="M1104.44,835.52h-26.75V722h-21V701.76h68.64V722h-20.94Z"/><path class="cls-1" d="M1166.56,837.28c-21.29,0-35-10.56-35-33.27V701.76h26.75V807.53c0,6.69,3,9,8.1,9s8.45-2.29,8.45-9V701.76h26.57V804C1201.41,826.72,1187.68,837.28,1166.56,837.28Z"/><path class="cls-1" d="M1212.85,835.52V701.76h36.79c19,0,30.79,6,30.79,28.86v15c0,12.15-7.56,19.36-19.71,22v.71c11.44,3.16,16.72,10.91,18.66,24.46.53,3.87.7,8.27,1,13.38.53,15,1.76,24.81,4.4,28.51v.88H1257.2c-1.76-1.76-3.16-8.63-3.16-14.79v-32c0-10.91-3.88-13-10.21-13h-4.23v59.84ZM1254,749.28v-22.7c0-5.28-1.77-7-7.57-7h-6.87v38.71h6.52C1250.87,758.25,1254,756.67,1254,749.28Z"/><path class="cls-1" d="M1344.85,776.73h-23.23v38.72h29.57v20.07h-56.32V701.76h55.44V722h-28.69v34.49h23.23Z"/><path class="cls-1" d="M1381.28,803.66c0,10.39,2.64,14.61,9.16,14.61s8.27-3.7,8.27-12.5c0-7.74-2.82-15.13-7.22-19.88-6.16-6.34-17.25-16-22.88-22.18-6-7-10.21-18.13-10.21-31.33,0-21.82,12.15-32.38,32.39-32.38s30.8,9.68,30.8,29.22a67.14,67.14,0,0,1-1.06,12.31l-22.18,4.05a145.67,145.67,0,0,0,1.06-14.6c0-8.63-3-11.8-7.92-11.8-5.81,0-7.74,3.17-7.74,11.27q0,10.81,6.86,17.95c4.58,4.22,16.54,15.31,23.94,24.11,4.75,5.63,9.68,18.48,9.68,29.92,0,25.87-12.15,34.85-33.27,34.85-21.64,0-33.26-11.09-33.26-33.62a119.8,119.8,0,0,1,.7-14.43l23.94-4.75C1381.81,791.17,1381.28,797,1381.28,803.66Z"/></g></g></svg>